%FSLAX46Y46*%
G04 Gerber Fmt 4.6, Leading zero omitted, Abs format (unit mm)*
G04 Created by KiCad (PCBNEW (2014-07-14 BZR 4996)-product) date wto, 15 lip 2014, 18:35:06*
%MOMM*%
G01*
G04 APERTURE LIST*
%ADD10C,0.100000*%
%ADD11C,0.170000*%
%ADD12C,0.127000*%
%ADD13C,0.066040*%
%ADD14C,0.101600*%
%ADD15C,0.150000*%
%ADD16C,0.304800*%
%ADD17C,0.250000*%
G04 APERTURE END LIST*
D10*
D11*
X89650601Y-101192733D02*
X89650601Y-101668924D01*
X88650601Y-101668924D01*
X89650601Y-100859400D02*
X88983934Y-100859400D01*
X88650601Y-100859400D02*
X88698220Y-100907019D01*
X88745839Y-100859400D01*
X88698220Y-100811781D01*
X88650601Y-100859400D01*
X88745839Y-100859400D01*
X89602982Y-99954638D02*
X89650601Y-100049876D01*
X89650601Y-100240353D01*
X89602982Y-100335591D01*
X89555363Y-100383210D01*
X89460125Y-100430829D01*
X89174410Y-100430829D01*
X89079172Y-100383210D01*
X89031553Y-100335591D01*
X88983934Y-100240353D01*
X88983934Y-100049876D01*
X89031553Y-99954638D01*
X89602982Y-99145114D02*
X89650601Y-99240352D01*
X89650601Y-99430829D01*
X89602982Y-99526067D01*
X89507744Y-99573686D01*
X89126791Y-99573686D01*
X89031553Y-99526067D01*
X88983934Y-99430829D01*
X88983934Y-99240352D01*
X89031553Y-99145114D01*
X89126791Y-99097495D01*
X89222030Y-99097495D01*
X89317268Y-99573686D01*
X88983934Y-98668924D02*
X89650601Y-98668924D01*
X89079172Y-98668924D02*
X89031553Y-98621305D01*
X88983934Y-98526067D01*
X88983934Y-98383209D01*
X89031553Y-98287971D01*
X89126791Y-98240352D01*
X89650601Y-98240352D01*
X89602982Y-97811781D02*
X89650601Y-97716543D01*
X89650601Y-97526067D01*
X89602982Y-97430828D01*
X89507744Y-97383209D01*
X89460125Y-97383209D01*
X89364887Y-97430828D01*
X89317268Y-97526067D01*
X89317268Y-97668924D01*
X89269649Y-97764162D01*
X89174410Y-97811781D01*
X89126791Y-97811781D01*
X89031553Y-97764162D01*
X88983934Y-97668924D01*
X88983934Y-97526067D01*
X89031553Y-97430828D01*
X89602982Y-96573685D02*
X89650601Y-96668923D01*
X89650601Y-96859400D01*
X89602982Y-96954638D01*
X89507744Y-97002257D01*
X89126791Y-97002257D01*
X89031553Y-96954638D01*
X88983934Y-96859400D01*
X88983934Y-96668923D01*
X89031553Y-96573685D01*
X89126791Y-96526066D01*
X89222030Y-96526066D01*
X89317268Y-97002257D01*
X89650601Y-95668923D02*
X88650601Y-95668923D01*
X89602982Y-95668923D02*
X89650601Y-95764161D01*
X89650601Y-95954638D01*
X89602982Y-96049876D01*
X89555363Y-96097495D01*
X89460125Y-96145114D01*
X89174410Y-96145114D01*
X89079172Y-96097495D01*
X89031553Y-96049876D01*
X88983934Y-95954638D01*
X88983934Y-95764161D01*
X89031553Y-95668923D01*
X88983934Y-94002256D02*
X89650601Y-94002256D01*
X88983934Y-94430828D02*
X89507744Y-94430828D01*
X89602982Y-94383209D01*
X89650601Y-94287971D01*
X89650601Y-94145113D01*
X89602982Y-94049875D01*
X89555363Y-94002256D01*
X88983934Y-93526066D02*
X89650601Y-93526066D01*
X89079172Y-93526066D02*
X89031553Y-93478447D01*
X88983934Y-93383209D01*
X88983934Y-93240351D01*
X89031553Y-93145113D01*
X89126791Y-93097494D01*
X89650601Y-93097494D01*
X89650601Y-92192732D02*
X88650601Y-92192732D01*
X89602982Y-92192732D02*
X89650601Y-92287970D01*
X89650601Y-92478447D01*
X89602982Y-92573685D01*
X89555363Y-92621304D01*
X89460125Y-92668923D01*
X89174410Y-92668923D01*
X89079172Y-92621304D01*
X89031553Y-92573685D01*
X88983934Y-92478447D01*
X88983934Y-92287970D01*
X89031553Y-92192732D01*
X89602982Y-91335589D02*
X89650601Y-91430827D01*
X89650601Y-91621304D01*
X89602982Y-91716542D01*
X89507744Y-91764161D01*
X89126791Y-91764161D01*
X89031553Y-91716542D01*
X88983934Y-91621304D01*
X88983934Y-91430827D01*
X89031553Y-91335589D01*
X89126791Y-91287970D01*
X89222030Y-91287970D01*
X89317268Y-91764161D01*
X89650601Y-90859399D02*
X88983934Y-90859399D01*
X89174410Y-90859399D02*
X89079172Y-90811780D01*
X89031553Y-90764161D01*
X88983934Y-90668923D01*
X88983934Y-90573684D01*
X89555363Y-88907017D02*
X89602982Y-88954636D01*
X89650601Y-89097493D01*
X89650601Y-89192731D01*
X89602982Y-89335589D01*
X89507744Y-89430827D01*
X89412506Y-89478446D01*
X89222030Y-89526065D01*
X89079172Y-89526065D01*
X88888696Y-89478446D01*
X88793458Y-89430827D01*
X88698220Y-89335589D01*
X88650601Y-89192731D01*
X88650601Y-89097493D01*
X88698220Y-88954636D01*
X88745839Y-88907017D01*
X89126791Y-88478446D02*
X89126791Y-88145112D01*
X89650601Y-88002255D02*
X89650601Y-88478446D01*
X88650601Y-88478446D01*
X88650601Y-88002255D01*
X89650601Y-87002255D02*
X89174410Y-87335589D01*
X89650601Y-87573684D02*
X88650601Y-87573684D01*
X88650601Y-87192731D01*
X88698220Y-87097493D01*
X88745839Y-87049874D01*
X88841077Y-87002255D01*
X88983934Y-87002255D01*
X89079172Y-87049874D01*
X89126791Y-87097493D01*
X89174410Y-87192731D01*
X89174410Y-87573684D01*
X89650601Y-86573684D02*
X88650601Y-86573684D01*
X89650601Y-86002255D01*
X88650601Y-86002255D01*
X88650601Y-84573684D02*
X88650601Y-84383207D01*
X88698220Y-84287969D01*
X88793458Y-84192731D01*
X88983934Y-84145112D01*
X89317268Y-84145112D01*
X89507744Y-84192731D01*
X89602982Y-84287969D01*
X89650601Y-84383207D01*
X89650601Y-84573684D01*
X89602982Y-84668922D01*
X89507744Y-84764160D01*
X89317268Y-84811779D01*
X88983934Y-84811779D01*
X88793458Y-84764160D01*
X88698220Y-84668922D01*
X88650601Y-84573684D01*
X89650601Y-83716541D02*
X88650601Y-83716541D01*
X89126791Y-83716541D02*
X89126791Y-83145112D01*
X89650601Y-83145112D02*
X88650601Y-83145112D01*
X89650601Y-82192731D02*
X89650601Y-82668922D01*
X88650601Y-82668922D01*
X88983934Y-81192731D02*
X89650601Y-80954636D01*
X88983934Y-80716540D01*
X89555363Y-80335588D02*
X89602982Y-80287969D01*
X89650601Y-80335588D01*
X89602982Y-80383207D01*
X89555363Y-80335588D01*
X89650601Y-80335588D01*
X89650601Y-79335588D02*
X89650601Y-79907017D01*
X89650601Y-79621303D02*
X88650601Y-79621303D01*
X88793458Y-79716541D01*
X88888696Y-79811779D01*
X88936315Y-79907017D01*
X89555363Y-78907017D02*
X89602982Y-78859398D01*
X89650601Y-78907017D01*
X89602982Y-78954636D01*
X89555363Y-78907017D01*
X89650601Y-78907017D01*
X88745839Y-78478446D02*
X88698220Y-78430827D01*
X88650601Y-78335589D01*
X88650601Y-78097493D01*
X88698220Y-78002255D01*
X88745839Y-77954636D01*
X88841077Y-77907017D01*
X88936315Y-77907017D01*
X89079172Y-77954636D01*
X89650601Y-78526065D01*
X89650601Y-77907017D01*
D12*
X105840740Y-92696219D02*
X105840740Y-93509019D01*
X106958340Y-93483619D02*
X106958340Y-92696219D01*
X107212340Y-93509019D02*
X105586740Y-93509019D01*
X105586740Y-93509019D02*
X105586740Y-92696219D01*
X105586740Y-92696219D02*
X107212340Y-92696219D01*
X107212340Y-92696219D02*
X107212340Y-93509019D01*
X104330040Y-91340782D02*
X104330040Y-90527982D01*
X103212440Y-90553382D02*
X103212440Y-91340782D01*
X102958440Y-90527982D02*
X104584040Y-90527982D01*
X104584040Y-90527982D02*
X104584040Y-91340782D01*
X104584040Y-91340782D02*
X102958440Y-91340782D01*
X102958440Y-91340782D02*
X102958440Y-90527982D01*
D11*
X110991401Y-88242600D02*
X109691401Y-88242600D01*
X101541401Y-88242600D02*
X102891401Y-88242600D01*
X101541401Y-74442600D02*
X111041401Y-74442600D01*
X111041401Y-86742600D02*
X111041401Y-88242600D01*
X101541401Y-86742600D02*
X101541401Y-88242600D01*
D12*
X100030828Y-91084724D02*
X100030828Y-90271924D01*
X98913228Y-90297324D02*
X98913228Y-91084724D01*
X98659228Y-90271924D02*
X100284828Y-90271924D01*
X100284828Y-90271924D02*
X100284828Y-91084724D01*
X100284828Y-91084724D02*
X98659228Y-91084724D01*
X98659228Y-91084724D02*
X98659228Y-90271924D01*
X101855075Y-93461878D02*
X101855075Y-94274678D01*
X102972675Y-94249278D02*
X102972675Y-93461878D01*
X103226675Y-94274678D02*
X101601075Y-94274678D01*
X101601075Y-94274678D02*
X101601075Y-93461878D01*
X101601075Y-93461878D02*
X103226675Y-93461878D01*
X103226675Y-93461878D02*
X103226675Y-94274678D01*
X105212030Y-97252978D02*
X105212030Y-96440178D01*
X104094430Y-96465578D02*
X104094430Y-97252978D01*
X103840430Y-96440178D02*
X105466030Y-96440178D01*
X105466030Y-96440178D02*
X105466030Y-97252978D01*
X105466030Y-97252978D02*
X103840430Y-97252978D01*
X103840430Y-97252978D02*
X103840430Y-96440178D01*
X106325322Y-96790127D02*
X107138122Y-96790127D01*
X107112722Y-95672527D02*
X106325322Y-95672527D01*
X107138122Y-95418527D02*
X107138122Y-97044127D01*
X107138122Y-97044127D02*
X106325322Y-97044127D01*
X106325322Y-97044127D02*
X106325322Y-95418527D01*
X106325322Y-95418527D02*
X107138122Y-95418527D01*
X108898722Y-96689027D02*
X109711522Y-96689027D01*
X109686122Y-95571427D02*
X108898722Y-95571427D01*
X109711522Y-95317427D02*
X109711522Y-96943027D01*
X109711522Y-96943027D02*
X108898722Y-96943027D01*
X108898722Y-96943027D02*
X108898722Y-95317427D01*
X108898722Y-95317427D02*
X109711522Y-95317427D01*
D13*
X111594210Y-88192938D02*
X112493370Y-88192938D01*
X112493370Y-88192938D02*
X112493370Y-87794158D01*
X111594210Y-87794158D02*
X112493370Y-87794158D01*
X111594210Y-88192938D02*
X111594210Y-87794158D01*
X111594210Y-89490878D02*
X112493370Y-89490878D01*
X112493370Y-89490878D02*
X112493370Y-89092098D01*
X111594210Y-89092098D02*
X112493370Y-89092098D01*
X111594210Y-89490878D02*
X111594210Y-89092098D01*
X111594210Y-88642518D02*
X111744070Y-88642518D01*
X111744070Y-88642518D02*
X111744070Y-88342798D01*
X111594210Y-88342798D02*
X111744070Y-88342798D01*
X111594210Y-88642518D02*
X111594210Y-88342798D01*
X112343510Y-88642518D02*
X112493370Y-88642518D01*
X112493370Y-88642518D02*
X112493370Y-88342798D01*
X112343510Y-88342798D02*
X112493370Y-88342798D01*
X112343510Y-88642518D02*
X112343510Y-88342798D01*
X111893930Y-88642518D02*
X112193650Y-88642518D01*
X112193650Y-88642518D02*
X112193650Y-88342798D01*
X111893930Y-88342798D02*
X112193650Y-88342798D01*
X111893930Y-88642518D02*
X111893930Y-88342798D01*
D14*
X111645010Y-88192938D02*
X111645010Y-89092098D01*
X112442570Y-88192938D02*
X112442570Y-89092098D01*
D15*
X121531017Y-89871820D02*
X121531017Y-87871820D01*
X123531017Y-89871820D02*
X123531017Y-87871820D01*
D11*
X104720792Y-101223380D02*
X104725792Y-101223380D01*
X105025792Y-101023380D02*
X105025792Y-103023380D01*
X105025792Y-103023380D02*
X107025792Y-103023380D01*
X107025792Y-103023380D02*
X107025792Y-101023380D01*
X105025792Y-101023380D02*
X107025792Y-101023380D01*
X104813243Y-107661000D02*
X104818243Y-107661000D01*
X105318243Y-109561000D02*
X107318243Y-109561000D01*
X105318243Y-107561000D02*
X107318243Y-107561000D01*
X98129600Y-102964743D02*
X98124600Y-102964743D01*
X94524600Y-100164743D02*
X94524600Y-100364743D01*
X97524600Y-100164743D02*
X97524600Y-100364743D01*
X94524600Y-103164743D02*
X94524600Y-102964743D01*
X97524600Y-103164743D02*
X97524600Y-102964743D01*
X97524600Y-100164743D02*
X94524600Y-100164743D01*
X97524600Y-103164743D02*
X94524600Y-103164743D01*
X101205323Y-110088380D02*
X101200323Y-110088380D01*
X100550323Y-108038380D02*
X98450323Y-108038380D01*
X100550323Y-110138380D02*
X98450323Y-110138380D01*
X90668442Y-108701398D02*
X90673442Y-108701398D01*
X91473442Y-111401398D02*
X91173442Y-111401398D01*
X91173442Y-111401398D02*
X91173442Y-111101398D01*
X91473442Y-108401398D02*
X91173442Y-108401398D01*
X91173442Y-108401398D02*
X91173442Y-108701398D01*
X94173442Y-111101398D02*
X94173442Y-111401398D01*
X94173442Y-111401398D02*
X93873442Y-111401398D01*
X94173442Y-108401398D02*
X94173442Y-108701398D01*
X93873442Y-108401398D02*
X94173442Y-108401398D01*
D12*
X123142978Y-108397221D02*
X123955778Y-108397221D01*
X123930378Y-107279621D02*
X123142978Y-107279621D01*
X123955778Y-107025621D02*
X123955778Y-108651221D01*
X123955778Y-108651221D02*
X123142978Y-108651221D01*
X123142978Y-108651221D02*
X123142978Y-107025621D01*
X123142978Y-107025621D02*
X123955778Y-107025621D01*
X114560640Y-89908624D02*
X114560640Y-89095824D01*
X113443040Y-89121224D02*
X113443040Y-89908624D01*
X113189040Y-89095824D02*
X114814640Y-89095824D01*
X114814640Y-89095824D02*
X114814640Y-89908624D01*
X114814640Y-89908624D02*
X113189040Y-89908624D01*
X113189040Y-89908624D02*
X113189040Y-89095824D01*
X97928640Y-86623496D02*
X97928640Y-87436296D01*
X99046240Y-87410896D02*
X99046240Y-86623496D01*
X99300240Y-87436296D02*
X97674640Y-87436296D01*
X97674640Y-87436296D02*
X97674640Y-86623496D01*
X97674640Y-86623496D02*
X99300240Y-86623496D01*
X99300240Y-86623496D02*
X99300240Y-87436296D01*
X99780324Y-98342460D02*
X98967524Y-98342460D01*
X98992924Y-99460060D02*
X99780324Y-99460060D01*
X98967524Y-99714060D02*
X98967524Y-98088460D01*
X98967524Y-98088460D02*
X99780324Y-98088460D01*
X99780324Y-98088460D02*
X99780324Y-99714060D01*
X99780324Y-99714060D02*
X98967524Y-99714060D01*
X113099576Y-102161580D02*
X113912376Y-102161580D01*
X113886976Y-101043980D02*
X113099576Y-101043980D01*
X113912376Y-100789980D02*
X113912376Y-102415580D01*
X113912376Y-102415580D02*
X113099576Y-102415580D01*
X113099576Y-102415580D02*
X113099576Y-100789980D01*
X113099576Y-100789980D02*
X113912376Y-100789980D01*
X112841200Y-109124382D02*
X112841200Y-108311582D01*
X111723600Y-108336982D02*
X111723600Y-109124382D01*
X111469600Y-108311582D02*
X113095200Y-108311582D01*
X113095200Y-108311582D02*
X113095200Y-109124382D01*
X113095200Y-109124382D02*
X111469600Y-109124382D01*
X111469600Y-109124382D02*
X111469600Y-108311582D01*
X113297660Y-106290822D02*
X113297660Y-105478022D01*
X112180060Y-105503422D02*
X112180060Y-106290822D01*
X111926060Y-105478022D02*
X113551660Y-105478022D01*
X113551660Y-105478022D02*
X113551660Y-106290822D01*
X113551660Y-106290822D02*
X111926060Y-106290822D01*
X111926060Y-106290822D02*
X111926060Y-105478022D01*
X114902980Y-83997077D02*
X114090180Y-83997077D01*
X114115580Y-85114677D02*
X114902980Y-85114677D01*
X114090180Y-85368677D02*
X114090180Y-83743077D01*
X114090180Y-83743077D02*
X114902980Y-83743077D01*
X114902980Y-83743077D02*
X114902980Y-85368677D01*
X114902980Y-85368677D02*
X114090180Y-85368677D01*
X119961022Y-85309980D02*
X119148222Y-85309980D01*
X119173622Y-86427580D02*
X119961022Y-86427580D01*
X119148222Y-86681580D02*
X119148222Y-85055980D01*
X119148222Y-85055980D02*
X119961022Y-85055980D01*
X119961022Y-85055980D02*
X119961022Y-86681580D01*
X119961022Y-86681580D02*
X119148222Y-86681580D01*
X116414980Y-81812178D02*
X116414980Y-82624978D01*
X117532580Y-82599578D02*
X117532580Y-81812178D01*
X117786580Y-82624978D02*
X116160980Y-82624978D01*
X116160980Y-82624978D02*
X116160980Y-81812178D01*
X116160980Y-81812178D02*
X117786580Y-81812178D01*
X117786580Y-81812178D02*
X117786580Y-82624978D01*
X95460445Y-98743480D02*
X95460445Y-99556280D01*
X96578045Y-99530880D02*
X96578045Y-98743480D01*
X96832045Y-99556280D02*
X95206445Y-99556280D01*
X95206445Y-99556280D02*
X95206445Y-98743480D01*
X95206445Y-98743480D02*
X96832045Y-98743480D01*
X96832045Y-98743480D02*
X96832045Y-99556280D01*
X92303623Y-103620822D02*
X93116423Y-103620822D01*
X93091023Y-102503222D02*
X92303623Y-102503222D01*
X93116423Y-102249222D02*
X93116423Y-103874822D01*
X93116423Y-103874822D02*
X92303623Y-103874822D01*
X92303623Y-103874822D02*
X92303623Y-102249222D01*
X92303623Y-102249222D02*
X93116423Y-102249222D01*
X91577797Y-104997222D02*
X91577797Y-105810022D01*
X92695397Y-105784622D02*
X92695397Y-104997222D01*
X92949397Y-105810022D02*
X91323797Y-105810022D01*
X91323797Y-105810022D02*
X91323797Y-104997222D01*
X91323797Y-104997222D02*
X92949397Y-104997222D01*
X92949397Y-104997222D02*
X92949397Y-105810022D01*
X96220178Y-107410660D02*
X95407378Y-107410660D01*
X95432778Y-108528260D02*
X96220178Y-108528260D01*
X95407378Y-108782260D02*
X95407378Y-107156660D01*
X95407378Y-107156660D02*
X96220178Y-107156660D01*
X96220178Y-107156660D02*
X96220178Y-108782260D01*
X96220178Y-108782260D02*
X95407378Y-108782260D01*
X90626622Y-106528760D02*
X89813822Y-106528760D01*
X89839222Y-107646360D02*
X90626622Y-107646360D01*
X89813822Y-107900360D02*
X89813822Y-106274760D01*
X89813822Y-106274760D02*
X90626622Y-106274760D01*
X90626622Y-106274760D02*
X90626622Y-107900360D01*
X90626622Y-107900360D02*
X89813822Y-107900360D01*
X98679760Y-111529338D02*
X98679760Y-112342138D01*
X99797360Y-112316738D02*
X99797360Y-111529338D01*
X100051360Y-112342138D02*
X98425760Y-112342138D01*
X98425760Y-112342138D02*
X98425760Y-111529338D01*
X98425760Y-111529338D02*
X100051360Y-111529338D01*
X100051360Y-111529338D02*
X100051360Y-112342138D01*
X98650960Y-112908638D02*
X98650960Y-113721438D01*
X99768560Y-113696038D02*
X99768560Y-112908638D01*
X100022560Y-113721438D02*
X98396960Y-113721438D01*
X98396960Y-113721438D02*
X98396960Y-112908638D01*
X98396960Y-112908638D02*
X100022560Y-112908638D01*
X100022560Y-112908638D02*
X100022560Y-113721438D01*
D11*
X122004618Y-83829500D02*
X121404618Y-83829500D01*
D12*
X121298218Y-84588300D02*
X122111018Y-84588300D01*
X122085618Y-83470700D02*
X121298218Y-83470700D01*
X122111018Y-83216700D02*
X122111018Y-84842300D01*
X122111018Y-84842300D02*
X121298218Y-84842300D01*
X121298218Y-84842300D02*
X121298218Y-83216700D01*
X121298218Y-83216700D02*
X122111018Y-83216700D01*
X123100978Y-105228220D02*
X123913778Y-105228220D01*
X123888378Y-104110620D02*
X123100978Y-104110620D01*
X123913778Y-103856620D02*
X123913778Y-105482220D01*
X123913778Y-105482220D02*
X123100978Y-105482220D01*
X123100978Y-105482220D02*
X123100978Y-103856620D01*
X123100978Y-103856620D02*
X123913778Y-103856620D01*
X114564059Y-91794996D02*
X114564059Y-92607796D01*
X115681659Y-92582396D02*
X115681659Y-91794996D01*
X115935659Y-92607796D02*
X114310059Y-92607796D01*
X114310059Y-92607796D02*
X114310059Y-91794996D01*
X114310059Y-91794996D02*
X115935659Y-91794996D01*
X115935659Y-91794996D02*
X115935659Y-92607796D01*
X123046620Y-86632062D02*
X123046620Y-85819262D01*
X121929020Y-85844662D02*
X121929020Y-86632062D01*
X121675020Y-85819262D02*
X123300620Y-85819262D01*
X123300620Y-85819262D02*
X123300620Y-86632062D01*
X123300620Y-86632062D02*
X121675020Y-86632062D01*
X121675020Y-86632062D02*
X121675020Y-85819262D01*
X105614980Y-103779798D02*
X105614980Y-104592598D01*
X106732580Y-104567198D02*
X106732580Y-103779798D01*
X106986580Y-104592598D02*
X105360980Y-104592598D01*
X105360980Y-104592598D02*
X105360980Y-103779798D01*
X105360980Y-103779798D02*
X106986580Y-103779798D01*
X106986580Y-103779798D02*
X106986580Y-104592598D01*
X108702780Y-100325398D02*
X108702780Y-101138198D01*
X109820380Y-101112798D02*
X109820380Y-100325398D01*
X110074380Y-101138198D02*
X108448780Y-101138198D01*
X108448780Y-101138198D02*
X108448780Y-100325398D01*
X108448780Y-100325398D02*
X110074380Y-100325398D01*
X110074380Y-100325398D02*
X110074380Y-101138198D01*
X108938722Y-102375700D02*
X108125922Y-102375700D01*
X108151322Y-103493300D02*
X108938722Y-103493300D01*
X108125922Y-103747300D02*
X108125922Y-102121700D01*
X108125922Y-102121700D02*
X108938722Y-102121700D01*
X108938722Y-102121700D02*
X108938722Y-103747300D01*
X108938722Y-103747300D02*
X108125922Y-103747300D01*
X110348422Y-102377400D02*
X109535622Y-102377400D01*
X109561022Y-103495000D02*
X110348422Y-103495000D01*
X109535622Y-103749000D02*
X109535622Y-102123400D01*
X109535622Y-102123400D02*
X110348422Y-102123400D01*
X110348422Y-102123400D02*
X110348422Y-103749000D01*
X110348422Y-103749000D02*
X109535622Y-103749000D01*
X104650882Y-107612680D02*
X103838082Y-107612680D01*
X103863482Y-108730280D02*
X104650882Y-108730280D01*
X103838082Y-108984280D02*
X103838082Y-107358680D01*
X103838082Y-107358680D02*
X104650882Y-107358680D01*
X104650882Y-107358680D02*
X104650882Y-108984280D01*
X104650882Y-108984280D02*
X103838082Y-108984280D01*
X95649580Y-85386775D02*
X95649580Y-84573975D01*
X94531980Y-84599375D02*
X94531980Y-85386775D01*
X94277980Y-84573975D02*
X95903580Y-84573975D01*
X95903580Y-84573975D02*
X95903580Y-85386775D01*
X95903580Y-85386775D02*
X94277980Y-85386775D01*
X94277980Y-85386775D02*
X94277980Y-84573975D01*
X99930178Y-82924620D02*
X99117378Y-82924620D01*
X99142778Y-84042220D02*
X99930178Y-84042220D01*
X99117378Y-84296220D02*
X99117378Y-82670620D01*
X99117378Y-82670620D02*
X99930178Y-82670620D01*
X99930178Y-82670620D02*
X99930178Y-84296220D01*
X99930178Y-84296220D02*
X99117378Y-84296220D01*
X98538797Y-82923839D02*
X97725997Y-82923839D01*
X97751397Y-84041439D02*
X98538797Y-84041439D01*
X97725997Y-84295439D02*
X97725997Y-82669839D01*
X97725997Y-82669839D02*
X98538797Y-82669839D01*
X98538797Y-82669839D02*
X98538797Y-84295439D01*
X98538797Y-84295439D02*
X97725997Y-84295439D01*
X112819380Y-81258178D02*
X112819380Y-82070978D01*
X113936980Y-82045578D02*
X113936980Y-81258178D01*
X114190980Y-82070978D02*
X112565380Y-82070978D01*
X112565380Y-82070978D02*
X112565380Y-81258178D01*
X112565380Y-81258178D02*
X114190980Y-81258178D01*
X114190980Y-81258178D02*
X114190980Y-82070978D01*
X113525222Y-83991580D02*
X112712422Y-83991580D01*
X112737822Y-85109180D02*
X113525222Y-85109180D01*
X112712422Y-85363180D02*
X112712422Y-83737580D01*
X112712422Y-83737580D02*
X113525222Y-83737580D01*
X113525222Y-83737580D02*
X113525222Y-85363180D01*
X113525222Y-85363180D02*
X112712422Y-85363180D01*
X95962560Y-90171382D02*
X95962560Y-89358582D01*
X94844960Y-89383982D02*
X94844960Y-90171382D01*
X94590960Y-89358582D02*
X96216560Y-89358582D01*
X96216560Y-89358582D02*
X96216560Y-90171382D01*
X96216560Y-90171382D02*
X94590960Y-90171382D01*
X94590960Y-90171382D02*
X94590960Y-89358582D01*
X92303554Y-100962480D02*
X93116354Y-100962480D01*
X93090954Y-99844880D02*
X92303554Y-99844880D01*
X93116354Y-99590880D02*
X93116354Y-101216480D01*
X93116354Y-101216480D02*
X92303554Y-101216480D01*
X92303554Y-101216480D02*
X92303554Y-99590880D01*
X92303554Y-99590880D02*
X93116354Y-99590880D01*
X101366915Y-103543818D02*
X100554115Y-103543818D01*
X100579515Y-104661418D02*
X101366915Y-104661418D01*
X100554115Y-104915418D02*
X100554115Y-103289818D01*
X100554115Y-103289818D02*
X101366915Y-103289818D01*
X101366915Y-103289818D02*
X101366915Y-104915418D01*
X101366915Y-104915418D02*
X100554115Y-104915418D01*
X90959997Y-101370745D02*
X91772797Y-101370745D01*
X91747397Y-100253145D02*
X90959997Y-100253145D01*
X91772797Y-99999145D02*
X91772797Y-101624745D01*
X91772797Y-101624745D02*
X90959997Y-101624745D01*
X90959997Y-101624745D02*
X90959997Y-99999145D01*
X90959997Y-99999145D02*
X91772797Y-99999145D01*
X90378178Y-110133524D02*
X89565378Y-110133524D01*
X89590778Y-111251124D02*
X90378178Y-111251124D01*
X89565378Y-111505124D02*
X89565378Y-109879524D01*
X89565378Y-109879524D02*
X90378178Y-109879524D01*
X90378178Y-109879524D02*
X90378178Y-111505124D01*
X90378178Y-111505124D02*
X89565378Y-111505124D01*
X101320358Y-109656900D02*
X102133158Y-109656900D01*
X102107758Y-108539300D02*
X101320358Y-108539300D01*
X102133158Y-108285300D02*
X102133158Y-109910900D01*
X102133158Y-109910900D02*
X101320358Y-109910900D01*
X101320358Y-109910900D02*
X101320358Y-108285300D01*
X101320358Y-108285300D02*
X102133158Y-108285300D01*
X96223902Y-110095280D02*
X95411102Y-110095280D01*
X95436502Y-111212880D02*
X96223902Y-111212880D01*
X95411102Y-111466880D02*
X95411102Y-109841280D01*
X95411102Y-109841280D02*
X96223902Y-109841280D01*
X96223902Y-109841280D02*
X96223902Y-111466880D01*
X96223902Y-111466880D02*
X95411102Y-111466880D01*
X96738062Y-109670300D02*
X97550862Y-109670300D01*
X97525462Y-108552700D02*
X96738062Y-108552700D01*
X97550862Y-108298700D02*
X97550862Y-109924300D01*
X97550862Y-109924300D02*
X96738062Y-109924300D01*
X96738062Y-109924300D02*
X96738062Y-108298700D01*
X96738062Y-108298700D02*
X97550862Y-108298700D01*
X93440640Y-107487502D02*
X93440640Y-106674702D01*
X92323040Y-106700102D02*
X92323040Y-107487502D01*
X92069040Y-106674702D02*
X93694640Y-106674702D01*
X93694640Y-106674702D02*
X93694640Y-107487502D01*
X93694640Y-107487502D02*
X92069040Y-107487502D01*
X92069040Y-107487502D02*
X92069040Y-106674702D01*
D13*
X112537882Y-100459501D02*
X111638722Y-100459501D01*
X111638722Y-100459501D02*
X111638722Y-100858281D01*
X112537882Y-100858281D02*
X111638722Y-100858281D01*
X112537882Y-100459501D02*
X112537882Y-100858281D01*
X112537882Y-99161561D02*
X111638722Y-99161561D01*
X111638722Y-99161561D02*
X111638722Y-99560341D01*
X112537882Y-99560341D02*
X111638722Y-99560341D01*
X112537882Y-99161561D02*
X112537882Y-99560341D01*
X112537882Y-100009921D02*
X112388022Y-100009921D01*
X112388022Y-100009921D02*
X112388022Y-100309641D01*
X112537882Y-100309641D02*
X112388022Y-100309641D01*
X112537882Y-100009921D02*
X112537882Y-100309641D01*
X111788582Y-100009921D02*
X111638722Y-100009921D01*
X111638722Y-100009921D02*
X111638722Y-100309641D01*
X111788582Y-100309641D02*
X111638722Y-100309641D01*
X111788582Y-100009921D02*
X111788582Y-100309641D01*
X112238162Y-100009921D02*
X111938442Y-100009921D01*
X111938442Y-100009921D02*
X111938442Y-100309641D01*
X112238162Y-100309641D02*
X111938442Y-100309641D01*
X112238162Y-100009921D02*
X112238162Y-100309641D01*
D14*
X112487082Y-100459501D02*
X112487082Y-99560341D01*
X111689522Y-100459501D02*
X111689522Y-99560341D01*
D13*
X100974358Y-89064911D02*
X100075198Y-89064911D01*
X100075198Y-89064911D02*
X100075198Y-89463691D01*
X100974358Y-89463691D02*
X100075198Y-89463691D01*
X100974358Y-89064911D02*
X100974358Y-89463691D01*
X100974358Y-87766971D02*
X100075198Y-87766971D01*
X100075198Y-87766971D02*
X100075198Y-88165751D01*
X100974358Y-88165751D02*
X100075198Y-88165751D01*
X100974358Y-87766971D02*
X100974358Y-88165751D01*
X100974358Y-88615331D02*
X100824498Y-88615331D01*
X100824498Y-88615331D02*
X100824498Y-88915051D01*
X100974358Y-88915051D02*
X100824498Y-88915051D01*
X100974358Y-88615331D02*
X100974358Y-88915051D01*
X100225058Y-88615331D02*
X100075198Y-88615331D01*
X100075198Y-88615331D02*
X100075198Y-88915051D01*
X100225058Y-88915051D02*
X100075198Y-88915051D01*
X100225058Y-88615331D02*
X100225058Y-88915051D01*
X100674638Y-88615331D02*
X100374918Y-88615331D01*
X100374918Y-88615331D02*
X100374918Y-88915051D01*
X100674638Y-88915051D02*
X100374918Y-88915051D01*
X100674638Y-88615331D02*
X100674638Y-88915051D01*
D14*
X100923558Y-89064911D02*
X100923558Y-88165751D01*
X100125998Y-89064911D02*
X100125998Y-88165751D01*
D13*
X100150421Y-99650420D02*
X101049581Y-99650420D01*
X101049581Y-99650420D02*
X101049581Y-99251640D01*
X100150421Y-99251640D02*
X101049581Y-99251640D01*
X100150421Y-99650420D02*
X100150421Y-99251640D01*
X100150421Y-100948360D02*
X101049581Y-100948360D01*
X101049581Y-100948360D02*
X101049581Y-100549580D01*
X100150421Y-100549580D02*
X101049581Y-100549580D01*
X100150421Y-100948360D02*
X100150421Y-100549580D01*
X100150421Y-100100000D02*
X100300281Y-100100000D01*
X100300281Y-100100000D02*
X100300281Y-99800280D01*
X100150421Y-99800280D02*
X100300281Y-99800280D01*
X100150421Y-100100000D02*
X100150421Y-99800280D01*
X100899721Y-100100000D02*
X101049581Y-100100000D01*
X101049581Y-100100000D02*
X101049581Y-99800280D01*
X100899721Y-99800280D02*
X101049581Y-99800280D01*
X100899721Y-100100000D02*
X100899721Y-99800280D01*
X100450141Y-100100000D02*
X100749861Y-100100000D01*
X100749861Y-100100000D02*
X100749861Y-99800280D01*
X100450141Y-99800280D02*
X100749861Y-99800280D01*
X100450141Y-100100000D02*
X100450141Y-99800280D01*
D14*
X100201221Y-99650420D02*
X100201221Y-100549580D01*
X100998781Y-99650420D02*
X100998781Y-100549580D01*
D12*
X99595820Y-77631822D02*
X99595820Y-78190622D01*
X98935420Y-77631822D02*
X98935420Y-78190622D01*
X98732220Y-77631822D02*
X98732220Y-78190622D01*
X98732220Y-78190622D02*
X99799020Y-78190622D01*
X99799020Y-78190622D02*
X99799020Y-77631822D01*
X99799020Y-77631822D02*
X98732220Y-77631822D01*
X99601020Y-80720422D02*
X99601020Y-81279222D01*
X98940620Y-80720422D02*
X98940620Y-81279222D01*
X98737420Y-80720422D02*
X98737420Y-81279222D01*
X98737420Y-81279222D02*
X99804220Y-81279222D01*
X99804220Y-81279222D02*
X99804220Y-80720422D01*
X99804220Y-80720422D02*
X98737420Y-80720422D01*
X99570601Y-79119800D02*
X100129401Y-79119800D01*
X99570601Y-79780200D02*
X100129401Y-79780200D01*
X99570601Y-79983400D02*
X100129401Y-79983400D01*
X100129401Y-79983400D02*
X100129401Y-78916600D01*
X100129401Y-78916600D02*
X99570601Y-78916600D01*
X99570601Y-78916600D02*
X99570601Y-79983400D01*
D15*
X118580000Y-84589999D02*
X118580000Y-85489999D01*
X118580000Y-85489999D02*
X117780000Y-85489999D01*
X115580000Y-84589999D02*
X115580000Y-85489999D01*
X115580000Y-85489999D02*
X116380000Y-85489999D01*
X116780000Y-84089999D02*
X117380000Y-84089999D01*
X118700000Y-88459999D02*
X118700000Y-89359999D01*
X118700000Y-89359999D02*
X117900000Y-89359999D01*
X115700000Y-88459999D02*
X115700000Y-89359999D01*
X115700000Y-89359999D02*
X116500000Y-89359999D01*
X116900000Y-87959999D02*
X117500000Y-87959999D01*
D12*
X109586659Y-92403300D02*
X110399459Y-92403300D01*
X110374059Y-91285700D02*
X109586659Y-91285700D01*
X110399459Y-91031700D02*
X110399459Y-92657300D01*
X110399459Y-92657300D02*
X109586659Y-92657300D01*
X109586659Y-92657300D02*
X109586659Y-91031700D01*
X109586659Y-91031700D02*
X110399459Y-91031700D01*
X114063599Y-87828800D02*
X114876399Y-87828800D01*
X114850999Y-86711200D02*
X114063599Y-86711200D01*
X114876399Y-86457200D02*
X114876399Y-88082800D01*
X114876399Y-88082800D02*
X114063599Y-88082800D01*
X114063599Y-88082800D02*
X114063599Y-86457200D01*
X114063599Y-86457200D02*
X114876399Y-86457200D01*
X119163599Y-89238800D02*
X119976399Y-89238800D01*
X119950999Y-88121200D02*
X119163599Y-88121200D01*
X119976399Y-87867200D02*
X119976399Y-89492800D01*
X119976399Y-89492800D02*
X119163599Y-89492800D01*
X119163599Y-89492800D02*
X119163599Y-87867200D01*
X119163599Y-87867200D02*
X119976399Y-87867200D01*
D11*
X96191920Y-85564972D02*
X96191920Y-85569972D01*
X94141920Y-86219972D02*
X94141920Y-88319972D01*
X96241920Y-86219972D02*
X96241920Y-88319972D01*
D16*
X122291899Y-111007740D02*
X122291899Y-113547740D01*
X122291899Y-113547740D02*
X107051899Y-113547740D01*
X107051899Y-113547740D02*
X107051899Y-111007740D01*
X107051899Y-111007740D02*
X122291899Y-111007740D01*
X119751899Y-111007740D02*
X119751899Y-113547740D01*
D11*
X89300000Y-112300000D02*
G75*
G03X89300000Y-112300000I-1000000J0D01*
G74*
G01*
X125300000Y-112300000D02*
G75*
G03X125300000Y-112300000I-1000000J0D01*
G74*
G01*
X125300000Y-76300000D02*
G75*
G03X125300000Y-76300000I-1000000J0D01*
G74*
G01*
X89295480Y-76281280D02*
G75*
G03X89295480Y-76281280I-1000000J0D01*
G74*
G01*
D12*
X123251200Y-90633599D02*
X123251200Y-91446399D01*
X124368800Y-91420999D02*
X124368800Y-90633599D01*
X124622800Y-91446399D02*
X122997200Y-91446399D01*
X122997200Y-91446399D02*
X122997200Y-90633599D01*
X122997200Y-90633599D02*
X124622800Y-90633599D01*
X124622800Y-90633599D02*
X124622800Y-91446399D01*
X124381360Y-92871101D02*
X124381360Y-92058301D01*
X123263760Y-92083701D02*
X123263760Y-92871101D01*
X123009760Y-92058301D02*
X124635360Y-92058301D01*
X124635360Y-92058301D02*
X124635360Y-92871101D01*
X124635360Y-92871101D02*
X123009760Y-92871101D01*
X123009760Y-92871101D02*
X123009760Y-92058301D01*
X117028800Y-106246401D02*
X117028800Y-105433601D01*
X115911200Y-105459001D02*
X115911200Y-106246401D01*
X115657200Y-105433601D02*
X117282800Y-105433601D01*
X117282800Y-105433601D02*
X117282800Y-106246401D01*
X117282800Y-106246401D02*
X115657200Y-106246401D01*
X115657200Y-106246401D02*
X115657200Y-105433601D01*
D17*
X108646261Y-92150360D02*
X108646261Y-92145360D01*
D11*
X105346261Y-92245360D02*
X108346261Y-92245360D01*
X108346261Y-92245360D02*
X108346261Y-90245360D01*
X108346261Y-90245360D02*
X105346261Y-90245360D01*
X105346261Y-90245360D02*
X105346261Y-92245360D01*
M02*
