%FSLAX46Y46*%
G04 Gerber Fmt 4.6, Leading zero omitted, Abs format (unit mm)*
G04 Created by KiCad (PCBNEW (2014-07-14 BZR 4996)-product) date wto, 15 lip 2014, 18:35:06*
%MOMM*%
G01*
G04 APERTURE LIST*
%ADD10C,0.100000*%
%ADD11C,0.127000*%
%ADD12C,0.170000*%
%ADD13C,0.150000*%
%ADD14C,0.200000*%
G04 APERTURE END LIST*
D10*
D11*
X92267302Y-98835980D02*
X91454502Y-98835980D01*
X91479902Y-97718380D02*
X92267302Y-97718380D01*
X91454502Y-97464380D02*
X91454502Y-99089980D01*
X91454502Y-99089980D02*
X92267302Y-99089980D01*
X92267302Y-99089980D02*
X92267302Y-97464380D01*
X92267302Y-97464380D02*
X91454502Y-97464380D01*
X99465928Y-94083128D02*
X99465928Y-94895928D01*
X98348328Y-94870528D02*
X98348328Y-94083128D01*
X98094328Y-94895928D02*
X99719928Y-94895928D01*
X99719928Y-94895928D02*
X99719928Y-94083128D01*
X99719928Y-94083128D02*
X98094328Y-94083128D01*
X98094328Y-94083128D02*
X98094328Y-94895928D01*
X117664340Y-93492828D02*
X116851540Y-93492828D01*
X116876940Y-92375228D02*
X117664340Y-92375228D01*
X116851540Y-92121228D02*
X116851540Y-93746828D01*
X116851540Y-93746828D02*
X117664340Y-93746828D01*
X117664340Y-93746828D02*
X117664340Y-92121228D01*
X117664340Y-92121228D02*
X116851540Y-92121228D01*
X114611182Y-92291686D02*
X114611182Y-91478886D01*
X115728782Y-91504286D02*
X115728782Y-92291686D01*
X115982782Y-91478886D02*
X114357182Y-91478886D01*
X114357182Y-91478886D02*
X114357182Y-92291686D01*
X114357182Y-92291686D02*
X115982782Y-92291686D01*
X115982782Y-92291686D02*
X115982782Y-91478886D01*
X100022422Y-90257122D02*
X100022422Y-91069922D01*
X98904822Y-91044522D02*
X98904822Y-90257122D01*
X98650822Y-91069922D02*
X100276422Y-91069922D01*
X100276422Y-91069922D02*
X100276422Y-90257122D01*
X100276422Y-90257122D02*
X98650822Y-90257122D01*
X98650822Y-90257122D02*
X98650822Y-91069922D01*
X117801620Y-101061622D02*
X116988820Y-101061622D01*
X117014220Y-99944022D02*
X117801620Y-99944022D01*
X116988820Y-99690022D02*
X116988820Y-101315622D01*
X116988820Y-101315622D02*
X117801620Y-101315622D01*
X117801620Y-101315622D02*
X117801620Y-99690022D01*
X117801620Y-99690022D02*
X116988820Y-99690022D01*
X112019420Y-101088022D02*
X111206620Y-101088022D01*
X111232020Y-99970422D02*
X112019420Y-99970422D01*
X111206620Y-99716422D02*
X111206620Y-101342022D01*
X111206620Y-101342022D02*
X112019420Y-101342022D01*
X112019420Y-101342022D02*
X112019420Y-99716422D01*
X112019420Y-99716422D02*
X111206620Y-99716422D01*
X117603820Y-95440421D02*
X118416620Y-95440421D01*
X118391220Y-96558021D02*
X117603820Y-96558021D01*
X118416620Y-96812021D02*
X118416620Y-95186421D01*
X118416620Y-95186421D02*
X117603820Y-95186421D01*
X117603820Y-95186421D02*
X117603820Y-96812021D01*
X117603820Y-96812021D02*
X118416620Y-96812021D01*
X116262626Y-95470422D02*
X117075426Y-95470422D01*
X117050026Y-96588022D02*
X116262626Y-96588022D01*
X117075426Y-96842022D02*
X117075426Y-95216422D01*
X117075426Y-95216422D02*
X116262626Y-95216422D01*
X116262626Y-95216422D02*
X116262626Y-96842022D01*
X116262626Y-96842022D02*
X117075426Y-96842022D01*
X107640102Y-86214944D02*
X106827302Y-86214944D01*
X106852702Y-85097344D02*
X107640102Y-85097344D01*
X106827302Y-84843344D02*
X106827302Y-86468944D01*
X106827302Y-86468944D02*
X107640102Y-86468944D01*
X107640102Y-86468944D02*
X107640102Y-84843344D01*
X107640102Y-84843344D02*
X106827302Y-84843344D01*
D12*
X119405993Y-97651401D02*
X122955993Y-97651401D01*
X119405993Y-96901401D02*
X119405993Y-97651401D01*
X119405993Y-90951401D02*
X122955993Y-90951401D01*
X119405993Y-90951401D02*
X119405993Y-91701401D01*
X122955993Y-90951401D02*
X122955993Y-97651401D01*
D13*
X109622640Y-106719877D02*
X107622640Y-106719877D01*
X109622640Y-108719877D02*
X107622640Y-108719877D01*
D12*
X93144895Y-93901600D02*
X92744895Y-93901600D01*
X93144895Y-95301600D02*
X92344895Y-95301600D01*
X94244895Y-95301600D02*
X94244895Y-93901600D01*
X91244895Y-95301600D02*
X91244895Y-93901600D01*
X124516009Y-109419001D02*
X124816009Y-109419001D01*
X123766009Y-105019001D02*
X123766009Y-107619001D01*
X124816009Y-103219001D02*
X124516009Y-103219001D01*
X88114781Y-103244801D02*
X87814781Y-103244801D01*
X88864781Y-107644801D02*
X88864781Y-105044801D01*
X87814781Y-109444801D02*
X88114781Y-109444801D01*
X124486209Y-85389001D02*
X124786209Y-85389001D01*
X123736209Y-80989001D02*
X123736209Y-83589001D01*
X124786209Y-79189001D02*
X124486209Y-79189001D01*
X88093181Y-79175201D02*
X87793181Y-79175201D01*
X88843181Y-83575201D02*
X88843181Y-80975201D01*
X87793181Y-85375201D02*
X88093181Y-85375201D01*
X122177711Y-105136320D02*
X121177711Y-104136320D01*
X117177711Y-109136320D02*
X117377711Y-109136320D01*
X117177711Y-104136320D02*
X117377711Y-104136320D01*
X120877711Y-109136320D02*
X118877711Y-109136320D01*
X122177711Y-109136320D02*
X122177711Y-105136320D01*
X121177711Y-104136320D02*
X118777711Y-104136320D01*
X117177711Y-104136320D02*
X117177711Y-109136320D01*
D11*
X92804058Y-97672960D02*
X93616858Y-97672960D01*
X93591458Y-98790560D02*
X92804058Y-98790560D01*
X93616858Y-99044560D02*
X93616858Y-97418960D01*
X93616858Y-97418960D02*
X92804058Y-97418960D01*
X92804058Y-97418960D02*
X92804058Y-99044560D01*
X92804058Y-99044560D02*
X93616858Y-99044560D01*
X122602222Y-84369980D02*
X121789422Y-84369980D01*
X121814822Y-83252380D02*
X122602222Y-83252380D01*
X121789422Y-82998380D02*
X121789422Y-84623980D01*
X121789422Y-84623980D02*
X122602222Y-84623980D01*
X122602222Y-84623980D02*
X122602222Y-82998380D01*
X122602222Y-82998380D02*
X121789422Y-82998380D01*
X88418580Y-89019938D02*
X88418580Y-88207138D01*
X89536180Y-88232538D02*
X89536180Y-89019938D01*
X89790180Y-88207138D02*
X88164580Y-88207138D01*
X88164580Y-88207138D02*
X88164580Y-89019938D01*
X88164580Y-89019938D02*
X89790180Y-89019938D01*
X89790180Y-89019938D02*
X89790180Y-88207138D01*
X94951978Y-98799628D02*
X94139178Y-98799628D01*
X94164578Y-97682028D02*
X94951978Y-97682028D01*
X94139178Y-97428028D02*
X94139178Y-99053628D01*
X94139178Y-99053628D02*
X94951978Y-99053628D01*
X94951978Y-99053628D02*
X94951978Y-97428028D01*
X94951978Y-97428028D02*
X94139178Y-97428028D01*
D12*
X90068999Y-92489001D02*
X90068999Y-92289001D01*
X90068999Y-96289001D02*
X90068999Y-96089001D01*
X85068999Y-98389001D02*
X88668999Y-98389001D01*
X85068999Y-90189001D02*
X88668999Y-90189001D01*
X85068999Y-98389001D02*
X85068999Y-90189001D01*
D11*
X122576822Y-81324180D02*
X121764022Y-81324180D01*
X121789422Y-80206580D02*
X122576822Y-80206580D01*
X121764022Y-79952580D02*
X121764022Y-81578180D01*
X121764022Y-81578180D02*
X122576822Y-81578180D01*
X122576822Y-81578180D02*
X122576822Y-79952580D01*
X122576822Y-79952580D02*
X121764022Y-79952580D01*
X89537020Y-86701262D02*
X89537020Y-87514062D01*
X88419420Y-87488662D02*
X88419420Y-86701262D01*
X88165420Y-87514062D02*
X89791020Y-87514062D01*
X89791020Y-87514062D02*
X89791020Y-86701262D01*
X89791020Y-86701262D02*
X88165420Y-86701262D01*
X88165420Y-86701262D02*
X88165420Y-87514062D01*
X90875780Y-85086778D02*
X90875780Y-84273978D01*
X91993380Y-84299378D02*
X91993380Y-85086778D01*
X92247380Y-84273978D02*
X90621780Y-84273978D01*
X90621780Y-84273978D02*
X90621780Y-85086778D01*
X90621780Y-85086778D02*
X92247380Y-85086778D01*
X92247380Y-85086778D02*
X92247380Y-84273978D01*
X106710018Y-108316357D02*
X105897218Y-108316357D01*
X105922618Y-107198757D02*
X106710018Y-107198757D01*
X105897218Y-106944757D02*
X105897218Y-108570357D01*
X105897218Y-108570357D02*
X106710018Y-108570357D01*
X106710018Y-108570357D02*
X106710018Y-106944757D01*
X106710018Y-106944757D02*
X105897218Y-106944757D01*
X109349440Y-105256141D02*
X109349440Y-106068941D01*
X108231840Y-106043541D02*
X108231840Y-105256141D01*
X107977840Y-106068941D02*
X109603440Y-106068941D01*
X109603440Y-106068941D02*
X109603440Y-105256141D01*
X109603440Y-105256141D02*
X107977840Y-105256141D01*
X107977840Y-105256141D02*
X107977840Y-106068941D01*
X108215000Y-104340099D02*
X108215000Y-103527299D01*
X109332600Y-103552699D02*
X109332600Y-104340099D01*
X109586600Y-103527299D02*
X107961000Y-103527299D01*
X107961000Y-103527299D02*
X107961000Y-104340099D01*
X107961000Y-104340099D02*
X109586600Y-104340099D01*
X109586600Y-104340099D02*
X109586600Y-103527299D01*
D14*
X93815801Y-84248200D02*
X93815801Y-84243200D01*
D12*
X90015801Y-83643200D02*
X90015801Y-77243200D01*
X94015801Y-83643200D02*
X94015801Y-77243200D01*
D11*
X100452525Y-89255122D02*
X100452525Y-89813922D01*
X101112925Y-89255122D02*
X101112925Y-89813922D01*
X101316125Y-89255122D02*
X101316125Y-89813922D01*
X101316125Y-89813922D02*
X100249325Y-89813922D01*
X100249325Y-89813922D02*
X100249325Y-89255122D01*
X100249325Y-89255122D02*
X101316125Y-89255122D01*
X100448925Y-88322322D02*
X100448925Y-88881122D01*
X101109325Y-88322322D02*
X101109325Y-88881122D01*
X101312525Y-88322322D02*
X101312525Y-88881122D01*
X101312525Y-88881122D02*
X100245725Y-88881122D01*
X100245725Y-88881122D02*
X100245725Y-88322322D01*
X100245725Y-88322322D02*
X101312525Y-88322322D01*
D12*
X90730197Y-100041173D02*
X90730197Y-99041173D01*
X90730197Y-102041173D02*
X90730197Y-101041173D01*
X90230197Y-101541173D02*
X91230197Y-101541173D01*
D11*
X108636800Y-101527301D02*
X108636800Y-102340101D01*
X107519200Y-102314701D02*
X107519200Y-101527301D01*
X107265200Y-102340101D02*
X108890800Y-102340101D01*
X108890800Y-102340101D02*
X108890800Y-101527301D01*
X108890800Y-101527301D02*
X107265200Y-101527301D01*
X107265200Y-101527301D02*
X107265200Y-102340101D01*
X105578601Y-99884500D02*
X106391401Y-99884500D01*
X106366001Y-101002100D02*
X105578601Y-101002100D01*
X106391401Y-101256100D02*
X106391401Y-99630500D01*
X106391401Y-99630500D02*
X105578601Y-99630500D01*
X105578601Y-99630500D02*
X105578601Y-101256100D01*
X105578601Y-101256100D02*
X106391401Y-101256100D01*
D14*
X109416700Y-100762199D02*
X109411700Y-100762199D01*
D12*
X108061700Y-101012199D02*
X107861700Y-101012199D01*
X108061700Y-99412199D02*
X107861700Y-99412199D01*
X104538197Y-101074200D02*
X104538197Y-100844200D01*
X90938197Y-101074200D02*
X90938197Y-100844200D01*
X90938197Y-100844200D02*
X104538197Y-100844200D01*
X104538197Y-109474200D02*
X104538197Y-103274200D01*
X90938197Y-109474200D02*
X90938197Y-103274200D01*
X90938197Y-111574200D02*
X90938197Y-114144200D01*
X90938197Y-114144200D02*
X104538197Y-114144200D01*
X104538197Y-114144200D02*
X104538197Y-111574200D01*
X112959331Y-88475799D02*
X112954331Y-88475799D01*
X111754331Y-97075799D02*
X112154331Y-97075799D01*
X112154331Y-97075799D02*
X112154331Y-96675799D01*
X103154331Y-96675799D02*
X103154331Y-97075799D01*
X103154331Y-97075799D02*
X103554331Y-97075799D01*
X103554331Y-88075799D02*
X103154331Y-88075799D01*
X103154331Y-88075799D02*
X103154331Y-88475799D01*
X112154331Y-88475799D02*
X112154331Y-88075799D01*
X112154331Y-88075799D02*
X111754331Y-88075799D01*
M02*
